<svg
  width="100"
  height="101"
  viewBox="0 0 100 101"
  fill="none"
  xmlns="http://www.w3.org/2000/svg"
>
  <path
    d="M84.375 28.6252H51.0547L40.1953 20.5002C39.1191 19.6784 37.7994 19.2386 36.4453 19.2502H15.625C13.9674 19.2502 12.3777 19.9087 11.2056 21.0808C10.0335 22.2529 9.375 23.8426 9.375 25.5002V78.6251C9.375 80.2829 10.0335 81.8726 11.2056 83.0448C12.3777 84.2166 13.9674 84.8751 15.625 84.8751H84.375C86.0325 84.8751 87.6222 84.2166 88.7944 83.0448C89.9666 81.8726 90.625 80.2829 90.625 78.6251V34.8751C90.625 33.2176 89.9666 31.6279 88.7944 30.4558C87.6222 29.2837 86.0325 28.6252 84.375 28.6252ZM15.625 25.5002H36.4453L44.8047 31.7502L36.4453 38.0001H15.625V25.5002Z"
    fill="white"
  />
</svg>
