<svg
  width="100"
  height="101"
  viewBox="0 0 100 101"
  fill="none"
  xmlns="http://www.w3.org/2000/svg"
>
  <path
    d="M90.625 50.5C90.6147 39.7288 86.3312 29.4016 78.7148 21.7852C71.0984 14.1688 60.7712 9.88534 50 9.875C39.2288 9.88534 28.9016 14.1688 21.2852 21.7852C13.6688 29.4016 9.38534 39.7288 9.375 50.5C9.38534 61.2712 13.6688 71.5984 21.2852 79.2148C28.9016 86.8312 39.2288 91.1147 50 91.125H50.0391C60.8035 91.1043 71.1206 86.8163 78.7286 79.201C86.3366 71.5857 90.6147 61.2645 90.625 50.5ZM19.2188 35.2266L39.2188 38.8984L18.2422 63.5859C16.377 59.0618 15.4992 54.1915 15.6676 49.3008C15.8361 44.4101 17.0467 39.6117 19.2188 35.2266ZM81.7578 37.4141C83.623 41.9382 84.5008 46.8085 84.3324 51.6992C84.1639 56.5899 82.9533 61.3883 80.7812 65.7734L60.7813 62.1016L81.7578 37.4141ZM78.6328 31.4766L65.4688 46.9844L54.5313 16.4375C62.0237 17.4 68.9801 20.837 74.2969 26.2031C75.9126 27.8136 77.365 29.58 78.6328 31.4766ZM47.8125 16.2031L54.6484 35.3437L22.7734 29.5234C23.6859 28.3617 24.6641 27.2531 25.7031 26.2031C31.5933 20.2657 39.4641 16.7057 47.8125 16.2031ZM21.3672 69.5234L34.5312 54.0156L45.4688 84.5625C37.9763 83.6 31.0199 80.163 25.7031 74.7969C24.0874 73.1864 22.635 71.42 21.3672 69.5234ZM52.1875 84.7969L45.3516 65.6562L54.3359 67.2969H54.375L77.2266 71.4766C76.3141 72.6383 75.3359 73.7468 74.2969 74.7969C68.4067 80.7343 60.5359 84.2943 52.1875 84.7969Z"
    fill="white"
  />
</svg>
