<svg
  width="100"
  height="101"
  viewBox="0 0 100 101"
  fill="none"
  xmlns="http://www.w3.org/2000/svg"
>
  <path
    d="M65.625 39.5625C65.625 40.8057 65.1311 41.998 64.2521 42.8771C63.373 43.7561 62.1807 44.25 60.9375 44.25C59.6943 44.25 58.502 43.7561 57.6229 42.8771C56.7439 41.998 56.25 40.8057 56.25 39.5625C56.25 38.3193 56.7439 37.127 57.6229 36.2479C58.502 35.3689 59.6943 34.875 60.9375 34.875C62.1807 34.875 63.373 35.3689 64.2521 36.2479C65.1311 37.127 65.625 38.3193 65.625 39.5625V39.5625ZM90.625 22.375V72.375V78.625C90.625 80.2826 89.9665 81.8723 88.7944 83.0444C87.6223 84.2165 86.0326 84.875 84.375 84.875H15.625C13.9674 84.875 12.3777 84.2165 11.2056 83.0444C10.0335 81.8723 9.375 80.2826 9.375 78.625V66.125V22.375C9.375 20.7174 10.0335 19.1277 11.2056 17.9556C12.3777 16.7835 13.9674 16.125 15.625 16.125H84.375C86.0326 16.125 87.6223 16.7835 88.7944 17.9556C89.9665 19.1277 90.625 20.7174 90.625 22.375ZM84.375 64.8359V22.375H15.625V58.5859L29.9609 44.25C31.1376 43.0906 32.7231 42.4407 34.375 42.4407C36.0269 42.4407 37.6124 43.0906 38.7891 44.25L56.25 61.7109L64.3359 53.625C65.5126 52.4656 67.0981 51.8157 68.75 51.8157C70.4019 51.8157 71.9874 52.4656 73.1641 53.625L84.375 64.8359Z"
    fill="white"
  />
</svg>
