<svg
  width="100"
  height="101"
  viewBox="0 0 100 101"
  fill="none"
  xmlns="http://www.w3.org/2000/svg"
>
  <path
    d="M82.0278 18.4694C80.1469 16.5761 77.9103 15.0736 75.4469 14.0483C72.9832 13.023 70.341 12.4951 67.6722 12.4951C65.0038 12.4951 62.3616 13.023 59.8978 14.0483C57.4341 15.0736 55.1975 16.5761 53.3169 18.4694L45.5825 26.2038C45.0438 26.7982 44.7544 27.577 44.7741 28.379C44.7938 29.1809 45.1213 29.9445 45.6885 30.5118C46.2557 31.079 47.0194 31.4064 47.8213 31.4261C48.6232 31.4458 49.4019 31.1565 49.9966 30.6178L57.731 22.8835C60.3728 20.2571 63.9469 18.783 67.6722 18.783C71.3975 18.783 74.9716 20.2571 77.6138 22.8835C78.9235 24.1866 79.9628 25.7357 80.6722 27.4417C81.3813 29.1478 81.7463 30.9772 81.7463 32.8249C81.7463 34.6724 81.3813 36.5017 80.6722 38.208C79.9628 39.9139 78.9235 41.463 77.6138 42.7661L66.5591 53.8208C63.9169 56.4474 60.3428 57.9214 56.6175 57.9214C52.8922 57.9214 49.3182 56.4474 46.6763 53.8208C46.3919 53.5074 46.0469 53.2546 45.6619 53.0783C45.2772 52.9021 44.8607 52.8055 44.4372 52.7952C44.0141 52.7849 43.5932 52.8605 43.2 53.0177C42.8069 53.1749 42.45 53.4102 42.1507 53.7096C41.8513 54.0089 41.616 54.3658 41.4588 54.7589C41.3016 55.1521 41.226 55.573 41.2363 55.9961C41.2466 56.4192 41.3432 56.8361 41.5194 57.2208C41.6957 57.6058 41.9485 57.9508 42.2622 58.2349C46.0707 62.0396 51.2341 64.1767 56.6175 64.1767C62.001 64.1767 67.1644 62.0396 70.9732 58.2349L82.0278 47.1802C83.921 45.2996 85.4235 43.063 86.4488 40.5992C87.4741 38.1355 88.0019 35.4933 88.0019 32.8249C88.0019 30.1563 87.4741 27.5141 86.4488 25.0504C85.4235 22.5866 83.921 20.3501 82.0278 18.4694Z"
    fill="white"
  />
  <path
    d="M50.0044 70.3823L42.27 78.1167C39.6147 80.6607 36.0684 82.0632 32.3909 82.0239C28.7139 81.9845 25.1984 80.5064 22.5981 77.9057C19.9977 75.3054 18.5195 71.7901 18.4801 68.1129C18.4406 64.4357 19.8433 60.8892 22.3873 58.2339L33.4419 47.1792C36.0841 44.5529 39.6581 43.0789 43.3834 43.0789C47.1087 43.0789 50.6828 44.5529 53.3247 47.1792C53.9194 47.7179 54.6981 48.0073 55.5 47.9873C56.3019 47.9676 57.0656 47.6404 57.6328 47.0732C58.2 46.5057 58.5275 45.7423 58.5472 44.9404C58.5669 44.1382 58.2775 43.3595 57.7387 42.7651C53.93 38.9604 48.7669 36.8232 43.3834 36.8232C38 36.8232 32.8366 38.9604 29.0279 42.7651L17.9732 53.8198C15.9858 55.6817 14.3931 57.9239 13.2898 60.4136C12.1864 62.9032 11.595 65.5895 11.5506 68.3123C11.5061 71.0351 12.0097 73.7392 13.0313 76.2636C14.0529 78.7879 15.5716 81.0811 17.4972 83.0067C19.4228 84.9323 21.716 86.4511 24.2403 87.4726C26.7647 88.4942 29.4687 88.9979 32.1916 88.9536C34.9144 88.9089 37.6006 88.3176 40.0903 87.2142C42.58 86.1107 44.8225 84.5182 46.6841 82.5307L54.4184 74.7964C54.9572 74.202 55.2466 73.4232 55.2269 72.6211C55.2072 71.8192 54.8797 71.0557 54.3125 70.4882C53.7453 69.9211 52.9816 69.5939 52.1797 69.5739C51.3778 69.5542 50.5991 69.8436 50.0044 70.3823Z"
    fill="white"
  />
</svg>
