<svg width="155" height="38" viewBox="0 0 155 38" fill="none" xmlns="http://www.w3.org/2000/svg">
<g clip-path="url(#clip0_133_3)">
<path d="M73.9915 13V25.7938H71.1644V15.7724H70.3511L65.8364 25.7938H62.7455L68.5096 13H73.9915Z" fill="white"/>
<path d="M56.9814 13L62.7455 25.7938H59.6551L55.14 15.7724H54.3271V25.7938H51.5V13H56.9814Z" fill="white"/>
<path d="M106.325 25.7938H109.152V13H106.325V25.7938Z" fill="white"/>
<path fill-rule="evenodd" clip-rule="evenodd" d="M78.7892 25.7938L80.6672 21.625H87.4293L89.3075 25.7938H92.3979L86.6343 13H81.4623L75.6982 25.7938H78.7892ZM81.9161 18.8527L83.3038 15.7724H84.7924L86.1802 18.8527H81.9161Z" fill="white"/>
<path d="M96.859 15.7724V25.7938H94.0319V13H100.56L106.325 25.7938H103.234L98.7189 15.7724H96.859Z" fill="white"/>
<path d="M119.884 15.7724V25.7938H117.057V15.7724H110.722V13H126.219V15.7724H119.884Z" fill="white"/>
<path d="M127.789 13H130.616V23.0215H139.569V25.7938H127.789V13Z" fill="white"/>
<path d="M143.967 20.5983V23.0215H153.967V25.7938H141.139V13H153.966V15.7724H143.967V17.8259H153.089V20.5983H143.967Z" fill="white"/>
<path d="M19.1598 37.8975L19.1623 31.6016C18.5184 31.6016 17.8695 31.551 17.2343 31.451L16.2429 37.6703C17.2044 37.8209 18.1859 37.8975 19.1611 37.8975H19.1598ZM22.0768 37.6728C23.0408 37.5222 23.9985 37.2963 24.9252 36.9988L22.9698 31.009C22.3595 31.2053 21.7268 31.3547 21.0903 31.4535L22.0768 37.6728ZM13.3932 36.9951L15.3536 31.0066C14.7421 30.8103 14.143 30.5634 13.5713 30.2745L10.6843 35.8828C11.5524 36.3223 12.4641 36.6963 13.3932 36.9951ZM27.6329 35.8902C28.5022 35.452 29.3429 34.9409 30.1325 34.3718L26.3948 29.2808C25.8755 29.656 25.3225 29.9918 24.7508 30.2795L27.6329 35.8902ZM8.18588 34.3619L11.9273 29.2734C11.4104 28.9005 10.9172 28.4808 10.4589 28.0278L5.96394 32.4768L5.96767 32.4805C6.65767 33.1645 7.40371 33.7977 8.18588 34.3619ZM32.3246 32.5188L32.3632 32.4793C33.0507 31.7979 33.6884 31.0597 34.2588 30.2856L29.1262 26.576C28.7501 27.0871 28.3278 27.5759 27.872 28.029L27.8085 28.0932L29.9681 30.114L32.3246 32.5188ZM4.06333 30.2733L9.19846 26.5674C8.81983 26.0526 8.48106 25.5045 8.18961 24.9378L2.53014 27.7957C2.97229 28.6561 3.48792 29.4894 4.06333 30.2721V30.2733ZM35.7945 27.808C36.2379 26.9476 36.6153 26.0439 36.9179 25.123L30.8761 23.1787C30.6781 23.7848 30.429 24.3786 30.1375 24.9452L35.7945 27.808ZM1.41045 25.1094L7.45354 23.1701C7.2555 22.5652 7.1048 21.938 7.00392 21.3072L0.729168 22.2874C0.881115 23.2429 1.11029 24.1922 1.41045 25.1107V25.1094ZM37.6005 22.301C37.7524 21.348 37.8296 20.3752 37.8309 19.4098L31.4789 19.4061C31.4789 20.0443 31.4278 20.6875 31.327 21.3183L37.6005 22.301ZM6.85321 19.3962C6.85321 18.758 6.90428 18.1136 7.00392 17.484L0.729168 16.5038C0.577217 17.4569 0.501244 18.4296 0.5 19.395H6.85196L6.85321 19.3962ZM31.3294 17.4939L37.6042 16.5174C37.4535 15.5619 37.2243 14.6126 36.9254 13.6942L30.8811 15.6298C31.0791 16.236 31.2298 16.8618 31.3294 17.4927V17.4939ZM7.45354 15.6224C7.65157 15.0163 7.90066 14.4213 8.19086 13.8546L2.53138 10.9956C2.08924 11.856 1.71185 12.7596 1.41045 13.6806L7.45229 15.6224H7.45354ZM30.145 13.8633L35.807 11.0091C35.3648 10.1475 34.8492 9.31418 34.275 8.53152L29.1374 12.235C29.5148 12.7498 29.8536 13.2979 30.145 13.8645V13.8633ZM9.20095 12.2251C9.57833 11.7116 10.0018 11.2202 10.4601 10.7672L10.4726 10.7548L5.98137 6.30327L5.96892 6.31562C5.27892 6.99952 4.63874 7.74145 4.06707 8.51794L9.20095 12.2251ZM27.8944 10.7894L29.2507 9.41788L32.3732 6.32426L32.3632 6.31439C31.6769 5.63418 30.9334 5.00336 30.1537 4.4392L26.4098 9.52528C26.9254 9.8981 27.4174 10.3154 27.872 10.7672L27.8944 10.7894ZM11.9423 9.5117C12.4616 9.13765 13.0146 8.80187 13.5863 8.51424L10.708 2.90227C9.83863 3.34051 8.99793 3.85035 8.2083 4.41945L11.9423 9.5117ZM24.767 8.52411L27.6578 2.91832C26.7897 2.47884 25.8792 2.10356 24.9501 1.80481L22.986 7.79206C23.5975 7.98958 24.1966 8.23524 24.7682 8.52535L24.767 8.52411ZM15.3698 7.78466C15.9814 7.58961 16.6141 7.44024 17.2493 7.34148L16.2666 1.1209C15.3038 1.27028 14.3448 1.49619 13.4182 1.7937L15.3698 7.78466ZM21.1065 7.34518L22.1004 1.12584C21.1389 0.975233 20.1575 0.897461 19.1835 0.897461L19.1773 7.19334C19.8212 7.19334 20.4701 7.24519 21.1065 7.34518Z" fill="white"/>
<path d="M19.1636 31.8797V25.5521C18.6271 25.5521 18.0918 25.4826 17.5741 25.3473L15.9166 31.4603C16.9746 31.7382 18.0666 31.8797 19.1636 31.8797ZM22.4106 31.4603C23.4724 31.1811 24.4939 30.7655 25.4436 30.2246L22.2293 24.7456C21.767 25.0086 21.2708 25.2109 20.7544 25.3461L22.4106 31.4603ZM12.8824 30.2233L16.0979 24.7456C15.637 24.4826 15.21 24.1587 14.8271 23.7828L14.7679 23.7257L12.7388 25.83L10.2488 28.2208L10.2853 28.2556C11.0637 29.0223 11.9378 29.6836 12.8837 30.2233H12.8824ZM28.0419 28.258H28.0432C28.8203 27.49 29.4916 26.6302 30.0383 25.6997L24.4788 22.5309C24.2117 22.985 23.883 23.4056 23.5014 23.7816L28.0419 28.258ZM8.2814 25.686L13.8459 22.5247C13.5789 22.0694 13.3749 21.5805 13.2376 21.0706L7.02944 22.6972C7.31157 23.7431 7.73352 24.7493 8.2814 25.686ZM31.2953 22.7133C31.5774 21.6711 31.721 20.5954 31.7222 19.5148L25.2987 19.5123C25.2987 20.0421 25.2282 20.5694 25.0896 21.0793L31.2953 22.7133ZM13.031 19.5048C13.031 18.9751 13.1016 18.4478 13.2414 17.9378L7.037 16.3001C6.75361 17.3423 6.60876 18.418 6.60876 19.4986L13.0323 19.5048H13.031ZM25.0909 17.9453L31.2978 16.3162C31.0144 15.2703 30.5925 14.2641 30.0446 13.3286L24.4813 16.4924C24.7483 16.9477 24.9536 17.4366 25.0909 17.9453ZM13.8522 16.485C14.1155 16.0371 14.4404 15.6214 14.8158 15.2492L14.8321 15.2331L12.5348 12.97L10.3256 10.7256L10.2853 10.7641C9.50943 11.5283 8.83938 12.3857 8.294 13.3137L13.8522 16.485ZM23.5052 15.2405L25.7798 12.9998L28.1011 10.8211L28.0432 10.7628C27.2673 9.9985 26.3945 9.33721 25.4511 8.79874L22.233 14.2753C22.6877 14.5346 23.1109 14.8547 23.4888 15.2244L23.5052 15.2405ZM16.1017 14.2715C16.5627 14.0085 17.059 13.8075 17.5766 13.671L15.9241 7.55679C14.8611 7.83595 13.8409 8.25034 12.89 8.79129L16.1017 14.2715ZM20.7582 13.6735L22.4195 7.56051C21.3615 7.28135 20.2695 7.13991 19.1724 7.13867L19.1686 13.4663C19.7065 13.4663 20.2417 13.5358 20.7594 13.6723L20.7582 13.6735Z" fill="white"/>
</g>
<defs>
<clipPath id="clip0_133_3">
<rect width="154" height="38" fill="white" transform="translate(0.5)"/>
</clipPath>
</defs>
</svg>
