<svg
  width="106"
  height="105"
  viewBox="0 0 106 105"
  fill="none"
  xmlns="http://www.w3.org/2000/svg"
>
  <path
    d="M71.7738 15.1887C59.3752 12.6871 46.6246 12.6871 34.226 15.1887C26.4605 16.7555 20.2111 22.7017 18.0672 30.5634L17.8847 31.2324C15.3578 40.4987 15.3578 50.3051 17.8847 59.5714L18.0672 60.2405C20.2111 68.1022 26.4605 74.0483 34.226 75.6152C39.4427 76.6677 44.7216 77.2774 50.0104 77.4442V85.5161H43.035C41.384 85.5161 40.0455 86.8976 40.0455 88.6018C40.0455 90.306 41.384 91.6875 43.035 91.6875H62.9648C64.6158 91.6875 65.9543 90.306 65.9543 88.6018C65.9543 86.8976 64.6158 85.5161 62.9648 85.5161H55.9894V77.4442C61.2782 77.2774 66.5572 76.6677 71.7738 75.6152C79.5393 74.0483 85.7888 68.1022 87.9327 60.2405L88.1151 59.5714C90.6421 50.3051 90.6421 40.4987 88.1151 31.2325L87.9327 30.5634C85.7888 22.7017 79.5393 16.7555 71.7738 15.1887Z"
    fill="white"
  />
  <path
    d="M42.2419 74.0149C42.2419 76.7504 41.4308 79.4244 39.911 81.6989C38.3912 83.9734 36.2312 85.7461 33.7039 86.7929C31.1766 87.8398 28.3957 88.1137 25.7128 87.58C23.0298 87.0463 20.5654 85.7291 18.6311 83.7948C16.6968 81.8605 15.3796 79.3961 14.8459 76.7131C14.3122 74.0302 14.5861 71.2493 15.633 68.722C16.6798 66.1948 18.4525 64.0347 20.727 62.5149C23.0015 60.9952 25.6755 60.184 28.411 60.184C32.0792 60.184 35.5972 61.6412 38.1909 64.235C40.7847 66.8288 42.2419 70.3467 42.2419 74.0149ZM15.4638 47.0062C16.0513 47.5743 16.8365 47.8918 17.6537 47.8918C18.4709 47.8918 19.2561 47.5743 19.8436 47.0062L25.3375 41.4739L30.8314 47.0062C31.4189 47.5743 32.2041 47.8918 33.0213 47.8918C33.8385 47.8918 34.6237 47.5743 35.2112 47.0062C35.7884 46.4235 36.1122 45.6365 36.1122 44.8163C36.1122 43.9962 35.7884 43.2092 35.2112 42.6265L29.6789 37.1325L35.2112 31.6386C35.7013 31.0414 35.9518 30.2833 35.9139 29.5117C35.876 28.7401 35.5525 28.0101 35.0062 27.4638C34.4599 26.9176 33.73 26.594 32.9584 26.5561C32.1867 26.5182 31.4286 26.7687 30.8314 27.2588L25.3375 32.7912L19.8436 27.2588C19.2464 26.7687 18.4883 26.5182 17.7167 26.5561C16.945 26.594 16.2151 26.9176 15.6688 27.4638C15.1226 28.0101 14.799 28.7401 14.7611 29.5117C14.7232 30.2833 14.9737 31.0414 15.4638 31.6386L20.9961 37.1325L15.4638 42.6265C14.8866 43.2092 14.5629 43.9962 14.5629 44.8163C14.5629 45.6365 14.8866 46.4235 15.4638 47.0062ZM81.9289 74.0149L87.4612 68.5209C87.9513 67.9238 88.2018 67.1656 88.1639 66.394C88.126 65.6224 87.8025 64.8925 87.2562 64.3462C86.7099 63.7999 85.98 63.4764 85.2084 63.4385C84.4367 63.4006 83.6786 63.6511 83.0814 64.1412L77.5875 69.6735L72.0936 64.1412C71.4964 63.6511 70.7383 63.4006 69.9667 63.4385C69.195 63.4764 68.4651 63.7999 67.9188 64.3462C67.3726 64.8925 67.049 65.6224 67.0111 66.394C66.9732 67.1656 67.2237 67.9238 67.7138 68.5209L73.2461 74.0149L67.7138 79.5088C67.1366 80.0915 66.8129 80.8785 66.8129 81.6987C66.8129 82.5189 67.1366 83.3059 67.7138 83.8886C68.3013 84.4566 69.0865 84.7742 69.9037 84.7742C70.7209 84.7742 71.5061 84.4566 72.0936 83.8886L77.5875 78.3562L83.0814 83.8886C83.6689 84.4566 84.4541 84.7742 85.2713 84.7742C86.0885 84.7742 86.8737 84.4566 87.4612 83.8886C88.0384 83.3059 88.3622 82.5189 88.3622 81.6987C88.3622 80.8785 88.0384 80.0915 87.4612 79.5088L81.9289 74.0149ZM62.873 21.1118L61.9509 20.2281H69.9037C70.7188 20.2281 71.5006 19.9043 72.077 19.3279C72.6534 18.7515 72.9772 17.9697 72.9772 17.1546C72.9772 16.3394 72.6534 15.5577 72.077 14.9813C71.5006 14.4049 70.7188 14.0811 69.9037 14.0811H54.536C53.7209 14.0811 52.9391 14.4049 52.3627 14.9813C51.7863 15.5577 51.4625 16.3394 51.4625 17.1546V32.5222C51.4625 33.3374 51.7863 34.1191 52.3627 34.6955C52.9391 35.2719 53.7209 35.5958 54.536 35.5958C55.3512 35.5958 56.133 35.2719 56.7094 34.6955C57.2858 34.1191 57.6096 33.3374 57.6096 32.5222V24.5695L58.4932 25.4915C65.4086 32.3686 65.3702 39.0919 64.1792 43.5101C62.3735 49.9261 56.7259 55.689 50.7325 57.1873C49.9417 57.3874 49.2609 57.89 48.837 58.587C48.413 59.284 48.2798 60.1196 48.4658 60.914C48.6297 61.5843 49.0144 62.18 49.558 62.6051C50.1016 63.0302 50.7724 63.26 51.4625 63.2575L52.1925 63.1807C60.3757 61.1445 67.7138 53.7296 70.0958 45.1237C72.4778 36.5178 69.8653 28.1425 62.873 21.1118Z"
    fill="#49536E"
  />
</svg>
